G04 #@! TF.GenerationSoftware,KiCad,Pcbnew,5.0.0-fee4fd1~66~ubuntu16.04.1*
G04 #@! TF.CreationDate,2018-09-16T00:44:00+01:00*
G04 #@! TF.ProjectId,gpio,6770696F2E6B696361645F7063620000,rev?*
G04 #@! TF.SameCoordinates,Original*
G04 #@! TF.FileFunction,Copper,L1,Top,Signal*
G04 #@! TF.FilePolarity,Positive*
%FSLAX46Y46*%
G04 Gerber Fmt 4.6, Leading zero omitted, Abs format (unit mm)*
G04 Created by KiCad (PCBNEW 5.0.0-fee4fd1~66~ubuntu16.04.1) date Sun Sep 16 00:44:00 2018*
%MOMM*%
%LPD*%
G01*
G04 APERTURE LIST*
G04 #@! TA.AperFunction,ComponentPad*
%ADD10R,1.900000X1.900000*%
G04 #@! TD*
G04 #@! TA.AperFunction,ComponentPad*
%ADD11C,1.900000*%
G04 #@! TD*
G04 #@! TA.AperFunction,SMDPad,CuDef*
%ADD12R,1.270000X4.200000*%
G04 #@! TD*
G04 #@! TA.AperFunction,SMDPad,CuDef*
%ADD13R,1.350000X4.700000*%
G04 #@! TD*
G04 #@! TA.AperFunction,Conductor*
%ADD14C,0.800000*%
G04 #@! TD*
G04 #@! TA.AperFunction,Conductor*
%ADD15C,0.250000*%
G04 #@! TD*
G04 APERTURE END LIST*
D10*
G04 #@! TO.P,J1,1*
G04 #@! TO.N,GND*
X100330000Y-76200000D03*
D11*
G04 #@! TO.P,J1,2*
G04 #@! TO.N,Net-(J1-Pad2)*
X102870000Y-76200000D03*
G04 #@! TO.P,J1,3*
G04 #@! TO.N,Net-(J1-Pad3)*
X105410000Y-76200000D03*
G04 #@! TO.P,J1,4*
G04 #@! TO.N,Net-(J1-Pad4)*
X107950000Y-76200000D03*
G04 #@! TO.P,J1,5*
G04 #@! TO.N,Net-(J1-Pad5)*
X110490000Y-76200000D03*
G04 #@! TD*
D12*
G04 #@! TO.P,P1,1*
G04 #@! TO.N,Net-(J1-Pad2)*
X105410000Y-81720000D03*
D13*
G04 #@! TO.P,P1,2*
G04 #@! TO.N,GND*
X102585000Y-81470000D03*
X108235000Y-81470000D03*
G04 #@! TD*
D14*
G04 #@! TO.N,Net-(J1-Pad2)*
X105410000Y-78740000D02*
X102870000Y-76200000D01*
X105410000Y-81720000D02*
X105410000Y-78740000D01*
G04 #@! TD*
D15*
G04 #@! TO.N,GND*
G36*
X111945001Y-77698016D02*
X111837224Y-77709344D01*
X111797259Y-77717548D01*
X111757209Y-77725188D01*
X111751194Y-77727004D01*
X111277641Y-77873593D01*
X111240046Y-77889396D01*
X111202227Y-77904676D01*
X111196679Y-77907626D01*
X110760619Y-78143403D01*
X110726764Y-78166238D01*
X110692679Y-78188543D01*
X110687815Y-78192510D01*
X110687809Y-78192514D01*
X110687804Y-78192519D01*
X110305850Y-78508498D01*
X110277126Y-78537423D01*
X110247970Y-78565974D01*
X110243965Y-78570816D01*
X109930655Y-78954972D01*
X109908079Y-78988951D01*
X109885042Y-79022596D01*
X109882053Y-79028123D01*
X109649327Y-79465819D01*
X109633790Y-79503513D01*
X109617717Y-79541014D01*
X109615859Y-79547017D01*
X109472580Y-80021581D01*
X109464648Y-80061639D01*
X109456179Y-80101484D01*
X109455522Y-80107732D01*
X109407148Y-80601088D01*
X109407148Y-80601095D01*
X109405001Y-80622895D01*
X109405000Y-83370000D01*
X109285000Y-83370000D01*
X109285000Y-81565750D01*
X109191250Y-81472000D01*
X108237000Y-81472000D01*
X108237000Y-81492000D01*
X108233000Y-81492000D01*
X108233000Y-81472000D01*
X107278750Y-81472000D01*
X107185000Y-81565750D01*
X107185000Y-83370000D01*
X106421814Y-83370000D01*
X106421814Y-79620000D01*
X106414574Y-79546487D01*
X106393131Y-79475800D01*
X106358309Y-79410653D01*
X106311448Y-79353552D01*
X106254347Y-79306691D01*
X106189200Y-79271869D01*
X106185000Y-79270595D01*
X106185000Y-79083065D01*
X107185000Y-79083065D01*
X107185000Y-81374250D01*
X107278750Y-81468000D01*
X108233000Y-81468000D01*
X108233000Y-78838750D01*
X108237000Y-78838750D01*
X108237000Y-81468000D01*
X109191250Y-81468000D01*
X109285000Y-81374250D01*
X109285000Y-79083065D01*
X109270589Y-79010616D01*
X109242321Y-78942371D01*
X109201281Y-78880951D01*
X109149048Y-78828718D01*
X109087629Y-78787679D01*
X109019383Y-78759411D01*
X108946934Y-78745000D01*
X108330750Y-78745000D01*
X108237000Y-78838750D01*
X108233000Y-78838750D01*
X108139250Y-78745000D01*
X107523066Y-78745000D01*
X107450617Y-78759411D01*
X107382371Y-78787679D01*
X107320952Y-78828718D01*
X107268719Y-78880951D01*
X107227679Y-78942371D01*
X107199411Y-79010616D01*
X107185000Y-79083065D01*
X106185000Y-79083065D01*
X106185000Y-78778062D01*
X106188749Y-78739999D01*
X106183922Y-78690991D01*
X106173786Y-78588074D01*
X106129470Y-78441986D01*
X106057506Y-78307350D01*
X105960659Y-78189341D01*
X105931092Y-78165076D01*
X105291015Y-77525000D01*
X105540501Y-77525000D01*
X105796488Y-77474081D01*
X106037623Y-77374200D01*
X106254638Y-77229195D01*
X106439195Y-77044638D01*
X106584200Y-76827623D01*
X106680000Y-76596340D01*
X106775800Y-76827623D01*
X106920805Y-77044638D01*
X107105362Y-77229195D01*
X107322377Y-77374200D01*
X107563512Y-77474081D01*
X107819499Y-77525000D01*
X108080501Y-77525000D01*
X108336488Y-77474081D01*
X108577623Y-77374200D01*
X108794638Y-77229195D01*
X108979195Y-77044638D01*
X109124200Y-76827623D01*
X109220000Y-76596340D01*
X109315800Y-76827623D01*
X109460805Y-77044638D01*
X109645362Y-77229195D01*
X109862377Y-77374200D01*
X110103512Y-77474081D01*
X110359499Y-77525000D01*
X110620501Y-77525000D01*
X110876488Y-77474081D01*
X111117623Y-77374200D01*
X111334638Y-77229195D01*
X111519195Y-77044638D01*
X111664200Y-76827623D01*
X111764081Y-76586488D01*
X111815000Y-76330501D01*
X111815000Y-76069499D01*
X111764081Y-75813512D01*
X111664200Y-75572377D01*
X111519195Y-75355362D01*
X111334638Y-75170805D01*
X111117623Y-75025800D01*
X110876488Y-74925919D01*
X110620501Y-74875000D01*
X110359499Y-74875000D01*
X110103512Y-74925919D01*
X109862377Y-75025800D01*
X109645362Y-75170805D01*
X109460805Y-75355362D01*
X109315800Y-75572377D01*
X109220000Y-75803660D01*
X109124200Y-75572377D01*
X108979195Y-75355362D01*
X108794638Y-75170805D01*
X108577623Y-75025800D01*
X108336488Y-74925919D01*
X108080501Y-74875000D01*
X107819499Y-74875000D01*
X107563512Y-74925919D01*
X107322377Y-75025800D01*
X107105362Y-75170805D01*
X106920805Y-75355362D01*
X106775800Y-75572377D01*
X106680000Y-75803660D01*
X106584200Y-75572377D01*
X106439195Y-75355362D01*
X106254638Y-75170805D01*
X106037623Y-75025800D01*
X105796488Y-74925919D01*
X105540501Y-74875000D01*
X105279499Y-74875000D01*
X105023512Y-74925919D01*
X104782377Y-75025800D01*
X104565362Y-75170805D01*
X104380805Y-75355362D01*
X104235800Y-75572377D01*
X104140000Y-75803660D01*
X104044200Y-75572377D01*
X103899195Y-75355362D01*
X103714638Y-75170805D01*
X103497623Y-75025800D01*
X103256488Y-74925919D01*
X103000501Y-74875000D01*
X102739499Y-74875000D01*
X102483512Y-74925919D01*
X102242377Y-75025800D01*
X102025362Y-75170805D01*
X101840805Y-75355362D01*
X101695800Y-75572377D01*
X101655000Y-75670877D01*
X101655000Y-75213065D01*
X101640589Y-75140616D01*
X101612321Y-75072371D01*
X101571281Y-75010951D01*
X101519048Y-74958718D01*
X101457629Y-74917679D01*
X101389383Y-74889411D01*
X101316934Y-74875000D01*
X100425750Y-74875000D01*
X100332000Y-74968750D01*
X100332000Y-76198000D01*
X100352000Y-76198000D01*
X100352000Y-76202000D01*
X100332000Y-76202000D01*
X100332000Y-77431250D01*
X100425750Y-77525000D01*
X101316934Y-77525000D01*
X101389383Y-77510589D01*
X101457629Y-77482321D01*
X101519048Y-77441282D01*
X101571281Y-77389049D01*
X101612321Y-77327629D01*
X101640589Y-77259384D01*
X101655000Y-77186935D01*
X101655000Y-76729123D01*
X101695800Y-76827623D01*
X101840805Y-77044638D01*
X102025362Y-77229195D01*
X102242377Y-77374200D01*
X102483512Y-77474081D01*
X102739499Y-77525000D01*
X103000501Y-77525000D01*
X103082646Y-77508660D01*
X104635001Y-79061017D01*
X104635001Y-79270595D01*
X104630800Y-79271869D01*
X104565653Y-79306691D01*
X104508552Y-79353552D01*
X104461691Y-79410653D01*
X104426869Y-79475800D01*
X104405426Y-79546487D01*
X104398186Y-79620000D01*
X104398186Y-83370000D01*
X103635000Y-83370000D01*
X103635000Y-81565750D01*
X103541250Y-81472000D01*
X102587000Y-81472000D01*
X102587000Y-81492000D01*
X102583000Y-81492000D01*
X102583000Y-81472000D01*
X101628750Y-81472000D01*
X101535000Y-81565750D01*
X101535000Y-83370000D01*
X101415000Y-83370000D01*
X101415000Y-80622895D01*
X101412975Y-80602336D01*
X101413086Y-80586484D01*
X101412473Y-80580231D01*
X101360656Y-80087224D01*
X101352452Y-80047259D01*
X101344812Y-80007209D01*
X101342996Y-80001194D01*
X101196407Y-79527641D01*
X101180604Y-79490046D01*
X101165324Y-79452227D01*
X101162374Y-79446679D01*
X100965769Y-79083065D01*
X101535000Y-79083065D01*
X101535000Y-81374250D01*
X101628750Y-81468000D01*
X102583000Y-81468000D01*
X102583000Y-78838750D01*
X102587000Y-78838750D01*
X102587000Y-81468000D01*
X103541250Y-81468000D01*
X103635000Y-81374250D01*
X103635000Y-79083065D01*
X103620589Y-79010616D01*
X103592321Y-78942371D01*
X103551281Y-78880951D01*
X103499048Y-78828718D01*
X103437629Y-78787679D01*
X103369383Y-78759411D01*
X103296934Y-78745000D01*
X102680750Y-78745000D01*
X102587000Y-78838750D01*
X102583000Y-78838750D01*
X102489250Y-78745000D01*
X101873066Y-78745000D01*
X101800617Y-78759411D01*
X101732371Y-78787679D01*
X101670952Y-78828718D01*
X101618719Y-78880951D01*
X101577679Y-78942371D01*
X101549411Y-79010616D01*
X101535000Y-79083065D01*
X100965769Y-79083065D01*
X100926597Y-79010619D01*
X100903762Y-78976764D01*
X100881457Y-78942679D01*
X100877490Y-78937815D01*
X100877486Y-78937809D01*
X100877481Y-78937804D01*
X100561502Y-78555850D01*
X100532577Y-78527126D01*
X100504026Y-78497970D01*
X100499184Y-78493965D01*
X100115028Y-78180655D01*
X100081049Y-78158079D01*
X100047404Y-78135042D01*
X100041877Y-78132053D01*
X99604181Y-77899327D01*
X99566487Y-77883790D01*
X99528986Y-77867717D01*
X99522987Y-77865860D01*
X99522981Y-77865858D01*
X99048419Y-77722580D01*
X99008361Y-77714648D01*
X98968516Y-77706179D01*
X98962268Y-77705522D01*
X98875000Y-77696965D01*
X98875000Y-76295750D01*
X99005000Y-76295750D01*
X99005000Y-77186935D01*
X99019411Y-77259384D01*
X99047679Y-77327629D01*
X99088719Y-77389049D01*
X99140952Y-77441282D01*
X99202371Y-77482321D01*
X99270617Y-77510589D01*
X99343066Y-77525000D01*
X100234250Y-77525000D01*
X100328000Y-77431250D01*
X100328000Y-76202000D01*
X99098750Y-76202000D01*
X99005000Y-76295750D01*
X98875000Y-76295750D01*
X98875000Y-75213065D01*
X99005000Y-75213065D01*
X99005000Y-76104250D01*
X99098750Y-76198000D01*
X100328000Y-76198000D01*
X100328000Y-74968750D01*
X100234250Y-74875000D01*
X99343066Y-74875000D01*
X99270617Y-74889411D01*
X99202371Y-74917679D01*
X99140952Y-74958718D01*
X99088719Y-75010951D01*
X99047679Y-75072371D01*
X99019411Y-75140616D01*
X99005000Y-75213065D01*
X98875000Y-75213065D01*
X98875000Y-74745000D01*
X111945000Y-74745000D01*
X111945001Y-77698016D01*
X111945001Y-77698016D01*
G37*
X111945001Y-77698016D02*
X111837224Y-77709344D01*
X111797259Y-77717548D01*
X111757209Y-77725188D01*
X111751194Y-77727004D01*
X111277641Y-77873593D01*
X111240046Y-77889396D01*
X111202227Y-77904676D01*
X111196679Y-77907626D01*
X110760619Y-78143403D01*
X110726764Y-78166238D01*
X110692679Y-78188543D01*
X110687815Y-78192510D01*
X110687809Y-78192514D01*
X110687804Y-78192519D01*
X110305850Y-78508498D01*
X110277126Y-78537423D01*
X110247970Y-78565974D01*
X110243965Y-78570816D01*
X109930655Y-78954972D01*
X109908079Y-78988951D01*
X109885042Y-79022596D01*
X109882053Y-79028123D01*
X109649327Y-79465819D01*
X109633790Y-79503513D01*
X109617717Y-79541014D01*
X109615859Y-79547017D01*
X109472580Y-80021581D01*
X109464648Y-80061639D01*
X109456179Y-80101484D01*
X109455522Y-80107732D01*
X109407148Y-80601088D01*
X109407148Y-80601095D01*
X109405001Y-80622895D01*
X109405000Y-83370000D01*
X109285000Y-83370000D01*
X109285000Y-81565750D01*
X109191250Y-81472000D01*
X108237000Y-81472000D01*
X108237000Y-81492000D01*
X108233000Y-81492000D01*
X108233000Y-81472000D01*
X107278750Y-81472000D01*
X107185000Y-81565750D01*
X107185000Y-83370000D01*
X106421814Y-83370000D01*
X106421814Y-79620000D01*
X106414574Y-79546487D01*
X106393131Y-79475800D01*
X106358309Y-79410653D01*
X106311448Y-79353552D01*
X106254347Y-79306691D01*
X106189200Y-79271869D01*
X106185000Y-79270595D01*
X106185000Y-79083065D01*
X107185000Y-79083065D01*
X107185000Y-81374250D01*
X107278750Y-81468000D01*
X108233000Y-81468000D01*
X108233000Y-78838750D01*
X108237000Y-78838750D01*
X108237000Y-81468000D01*
X109191250Y-81468000D01*
X109285000Y-81374250D01*
X109285000Y-79083065D01*
X109270589Y-79010616D01*
X109242321Y-78942371D01*
X109201281Y-78880951D01*
X109149048Y-78828718D01*
X109087629Y-78787679D01*
X109019383Y-78759411D01*
X108946934Y-78745000D01*
X108330750Y-78745000D01*
X108237000Y-78838750D01*
X108233000Y-78838750D01*
X108139250Y-78745000D01*
X107523066Y-78745000D01*
X107450617Y-78759411D01*
X107382371Y-78787679D01*
X107320952Y-78828718D01*
X107268719Y-78880951D01*
X107227679Y-78942371D01*
X107199411Y-79010616D01*
X107185000Y-79083065D01*
X106185000Y-79083065D01*
X106185000Y-78778062D01*
X106188749Y-78739999D01*
X106183922Y-78690991D01*
X106173786Y-78588074D01*
X106129470Y-78441986D01*
X106057506Y-78307350D01*
X105960659Y-78189341D01*
X105931092Y-78165076D01*
X105291015Y-77525000D01*
X105540501Y-77525000D01*
X105796488Y-77474081D01*
X106037623Y-77374200D01*
X106254638Y-77229195D01*
X106439195Y-77044638D01*
X106584200Y-76827623D01*
X106680000Y-76596340D01*
X106775800Y-76827623D01*
X106920805Y-77044638D01*
X107105362Y-77229195D01*
X107322377Y-77374200D01*
X107563512Y-77474081D01*
X107819499Y-77525000D01*
X108080501Y-77525000D01*
X108336488Y-77474081D01*
X108577623Y-77374200D01*
X108794638Y-77229195D01*
X108979195Y-77044638D01*
X109124200Y-76827623D01*
X109220000Y-76596340D01*
X109315800Y-76827623D01*
X109460805Y-77044638D01*
X109645362Y-77229195D01*
X109862377Y-77374200D01*
X110103512Y-77474081D01*
X110359499Y-77525000D01*
X110620501Y-77525000D01*
X110876488Y-77474081D01*
X111117623Y-77374200D01*
X111334638Y-77229195D01*
X111519195Y-77044638D01*
X111664200Y-76827623D01*
X111764081Y-76586488D01*
X111815000Y-76330501D01*
X111815000Y-76069499D01*
X111764081Y-75813512D01*
X111664200Y-75572377D01*
X111519195Y-75355362D01*
X111334638Y-75170805D01*
X111117623Y-75025800D01*
X110876488Y-74925919D01*
X110620501Y-74875000D01*
X110359499Y-74875000D01*
X110103512Y-74925919D01*
X109862377Y-75025800D01*
X109645362Y-75170805D01*
X109460805Y-75355362D01*
X109315800Y-75572377D01*
X109220000Y-75803660D01*
X109124200Y-75572377D01*
X108979195Y-75355362D01*
X108794638Y-75170805D01*
X108577623Y-75025800D01*
X108336488Y-74925919D01*
X108080501Y-74875000D01*
X107819499Y-74875000D01*
X107563512Y-74925919D01*
X107322377Y-75025800D01*
X107105362Y-75170805D01*
X106920805Y-75355362D01*
X106775800Y-75572377D01*
X106680000Y-75803660D01*
X106584200Y-75572377D01*
X106439195Y-75355362D01*
X106254638Y-75170805D01*
X106037623Y-75025800D01*
X105796488Y-74925919D01*
X105540501Y-74875000D01*
X105279499Y-74875000D01*
X105023512Y-74925919D01*
X104782377Y-75025800D01*
X104565362Y-75170805D01*
X104380805Y-75355362D01*
X104235800Y-75572377D01*
X104140000Y-75803660D01*
X104044200Y-75572377D01*
X103899195Y-75355362D01*
X103714638Y-75170805D01*
X103497623Y-75025800D01*
X103256488Y-74925919D01*
X103000501Y-74875000D01*
X102739499Y-74875000D01*
X102483512Y-74925919D01*
X102242377Y-75025800D01*
X102025362Y-75170805D01*
X101840805Y-75355362D01*
X101695800Y-75572377D01*
X101655000Y-75670877D01*
X101655000Y-75213065D01*
X101640589Y-75140616D01*
X101612321Y-75072371D01*
X101571281Y-75010951D01*
X101519048Y-74958718D01*
X101457629Y-74917679D01*
X101389383Y-74889411D01*
X101316934Y-74875000D01*
X100425750Y-74875000D01*
X100332000Y-74968750D01*
X100332000Y-76198000D01*
X100352000Y-76198000D01*
X100352000Y-76202000D01*
X100332000Y-76202000D01*
X100332000Y-77431250D01*
X100425750Y-77525000D01*
X101316934Y-77525000D01*
X101389383Y-77510589D01*
X101457629Y-77482321D01*
X101519048Y-77441282D01*
X101571281Y-77389049D01*
X101612321Y-77327629D01*
X101640589Y-77259384D01*
X101655000Y-77186935D01*
X101655000Y-76729123D01*
X101695800Y-76827623D01*
X101840805Y-77044638D01*
X102025362Y-77229195D01*
X102242377Y-77374200D01*
X102483512Y-77474081D01*
X102739499Y-77525000D01*
X103000501Y-77525000D01*
X103082646Y-77508660D01*
X104635001Y-79061017D01*
X104635001Y-79270595D01*
X104630800Y-79271869D01*
X104565653Y-79306691D01*
X104508552Y-79353552D01*
X104461691Y-79410653D01*
X104426869Y-79475800D01*
X104405426Y-79546487D01*
X104398186Y-79620000D01*
X104398186Y-83370000D01*
X103635000Y-83370000D01*
X103635000Y-81565750D01*
X103541250Y-81472000D01*
X102587000Y-81472000D01*
X102587000Y-81492000D01*
X102583000Y-81492000D01*
X102583000Y-81472000D01*
X101628750Y-81472000D01*
X101535000Y-81565750D01*
X101535000Y-83370000D01*
X101415000Y-83370000D01*
X101415000Y-80622895D01*
X101412975Y-80602336D01*
X101413086Y-80586484D01*
X101412473Y-80580231D01*
X101360656Y-80087224D01*
X101352452Y-80047259D01*
X101344812Y-80007209D01*
X101342996Y-80001194D01*
X101196407Y-79527641D01*
X101180604Y-79490046D01*
X101165324Y-79452227D01*
X101162374Y-79446679D01*
X100965769Y-79083065D01*
X101535000Y-79083065D01*
X101535000Y-81374250D01*
X101628750Y-81468000D01*
X102583000Y-81468000D01*
X102583000Y-78838750D01*
X102587000Y-78838750D01*
X102587000Y-81468000D01*
X103541250Y-81468000D01*
X103635000Y-81374250D01*
X103635000Y-79083065D01*
X103620589Y-79010616D01*
X103592321Y-78942371D01*
X103551281Y-78880951D01*
X103499048Y-78828718D01*
X103437629Y-78787679D01*
X103369383Y-78759411D01*
X103296934Y-78745000D01*
X102680750Y-78745000D01*
X102587000Y-78838750D01*
X102583000Y-78838750D01*
X102489250Y-78745000D01*
X101873066Y-78745000D01*
X101800617Y-78759411D01*
X101732371Y-78787679D01*
X101670952Y-78828718D01*
X101618719Y-78880951D01*
X101577679Y-78942371D01*
X101549411Y-79010616D01*
X101535000Y-79083065D01*
X100965769Y-79083065D01*
X100926597Y-79010619D01*
X100903762Y-78976764D01*
X100881457Y-78942679D01*
X100877490Y-78937815D01*
X100877486Y-78937809D01*
X100877481Y-78937804D01*
X100561502Y-78555850D01*
X100532577Y-78527126D01*
X100504026Y-78497970D01*
X100499184Y-78493965D01*
X100115028Y-78180655D01*
X100081049Y-78158079D01*
X100047404Y-78135042D01*
X100041877Y-78132053D01*
X99604181Y-77899327D01*
X99566487Y-77883790D01*
X99528986Y-77867717D01*
X99522987Y-77865860D01*
X99522981Y-77865858D01*
X99048419Y-77722580D01*
X99008361Y-77714648D01*
X98968516Y-77706179D01*
X98962268Y-77705522D01*
X98875000Y-77696965D01*
X98875000Y-76295750D01*
X99005000Y-76295750D01*
X99005000Y-77186935D01*
X99019411Y-77259384D01*
X99047679Y-77327629D01*
X99088719Y-77389049D01*
X99140952Y-77441282D01*
X99202371Y-77482321D01*
X99270617Y-77510589D01*
X99343066Y-77525000D01*
X100234250Y-77525000D01*
X100328000Y-77431250D01*
X100328000Y-76202000D01*
X99098750Y-76202000D01*
X99005000Y-76295750D01*
X98875000Y-76295750D01*
X98875000Y-75213065D01*
X99005000Y-75213065D01*
X99005000Y-76104250D01*
X99098750Y-76198000D01*
X100328000Y-76198000D01*
X100328000Y-74968750D01*
X100234250Y-74875000D01*
X99343066Y-74875000D01*
X99270617Y-74889411D01*
X99202371Y-74917679D01*
X99140952Y-74958718D01*
X99088719Y-75010951D01*
X99047679Y-75072371D01*
X99019411Y-75140616D01*
X99005000Y-75213065D01*
X98875000Y-75213065D01*
X98875000Y-74745000D01*
X111945000Y-74745000D01*
X111945001Y-77698016D01*
G04 #@! TD*
M02*
