M48
;DRILL file {KiCad 5.0.0-rc2-unknown-68f6e3a~65~ubuntu16.04.1} date Tue Jun 12 13:32:45 2018
;FORMAT={-:-/ absolute / inch / decimal}
FMAT,2
INCH,TZ
T1C0.0157
T2C0.0362
T3C0.0394
T4C0.0906
T5C0.0394
%
G90
G05
M72
T1
X3.9764Y-3.9764
X3.9764Y-5.8661
X4.0571Y-5.0925
X4.0709Y-5.624
X4.0945Y-3.9764
X4.0945Y-5.8661
X4.1339Y-4.1339
X4.1339Y-4.5276
X4.1339Y-5.7087
X4.1457Y-5.624
X4.1673Y-5.0925
X4.2126Y-3.9764
X4.2126Y-5.6142
X4.2126Y-5.8661
X4.2382Y-5.7028
X4.248Y-5.3957
X4.25Y-5.315
X4.25Y-5.5689
X4.2579Y-5.1791
X4.2598Y-5.4882
X4.2835Y-5.748
X4.3051Y-5.4429
X4.3287Y-5.3976
X4.3307Y-3.9764
X4.3307Y-4.1339
X4.3307Y-4.3307
X4.3307Y-4.7244
X4.3307Y-4.9213
X4.3307Y-5.315
X4.3307Y-5.8661
X4.378Y-5.6457
X4.4193Y-5.315
X4.439Y-5.3976
X4.4488Y-3.9764
X4.4488Y-5.8661
X4.4508Y-4.5807
X4.4724Y-5.6929
X4.4744Y-5.4469
X4.4882Y-4.8898
X4.4921Y-5.0079
X4.5Y-4.5394
X4.5079Y-5.311
X4.5098Y-5.3976
X4.5276Y-4.1339
X4.5276Y-4.3307
X4.5276Y-5.1181
X4.5394Y-4.9331
X4.5669Y-3.9764
X4.5669Y-5.8661
X4.5728Y-5.2579
X4.5906Y-5.748
X4.6358Y-5.3976
X4.6378Y-5.311
X4.6447Y-4.753
X4.6575Y-5.7323
X4.6772Y-4.811
X4.6772Y-5.622
X4.685Y-3.9764
X4.685Y-5.8661
X4.7244Y-4.1339
X4.7244Y-4.3307
X4.7244Y-4.7244
X4.7244Y-5.1181
X4.7244Y-5.622
X4.7283Y-5.311
X4.8031Y-3.9764
X4.8031Y-5.8661
X4.811Y-5.6102
X4.8524Y-4.7736
X4.8524Y-4.8327
X4.8583Y-5.0079
X4.8583Y-5.3937
X4.8622Y-5.311
X4.874Y-5.5472
X4.8858Y-5.6575
X4.9213Y-3.9764
X4.9213Y-4.1339
X4.9213Y-4.3307
X4.9213Y-4.7244
X4.9213Y-5.7087
X4.9213Y-5.8661
X4.9232Y-4.8898
X4.9646Y-4.5157
X4.9646Y-4.6142
X5.0059Y-5.6575
X5.0079Y-5.1654
X5.0315Y-5.4882
X5.0354Y-5.3425
X5.0394Y-3.9764
X5.0394Y-5.8661
X5.0551Y-5.0079
X5.0827Y-5.2953
X5.1181Y-4.1339
X5.1181Y-5.7087
X5.128Y-4.2224
X5.1299Y-5.3425
X5.1476Y-4.9587
X5.1575Y-3.9764
X5.1575Y-5.8661
X5.187Y-4.2224
X5.2047Y-5.1654
X5.2283Y-5.4882
X5.2362Y-5.5669
X5.2717Y-5.4528
X5.2756Y-3.9764
X5.2756Y-4.7756
X5.2756Y-5.8661
X5.315Y-4.1339
X5.315Y-4.3307
X5.315Y-4.7244
X5.315Y-5.315
X5.315Y-5.4882
X5.315Y-5.7087
X5.3642Y-4.8327
X5.3937Y-3.9764
X5.3937Y-4.7992
X5.3937Y-5.8661
X5.4016Y-5.4724
X5.4035Y-4.2224
X5.4232Y-4.8327
X5.4331Y-5.5669
X5.437Y-4.3661
X5.437Y-4.5079
X5.437Y-4.6535
X5.4429Y-5.1083
X5.4449Y-4.6102
X5.4469Y-4.6949
X5.4587Y-5.2795
X5.5118Y-3.9764
X5.5118Y-4.1339
X5.5118Y-4.3307
X5.5118Y-5.1181
X5.5118Y-5.4252
X5.5118Y-5.7087
X5.5118Y-5.8661
X5.5207Y-5.3396
X5.5217Y-5.2677
X5.561Y-4.9587
X5.5748Y-5.2992
X5.5906Y-4.6102
X5.5945Y-4.9961
X5.5945Y-5.0512
X5.626Y-5.2677
X5.6299Y-3.9764
X5.6299Y-5.5669
X5.6299Y-5.8661
X5.6339Y-4.748
X5.6614Y-4.8563
X5.6634Y-4.7776
X5.6693Y-5.4331
X5.6693Y-5.4803
X5.6969Y-4.8976
X5.6998Y-4.7402
X5.7087Y-4.1339
X5.7087Y-4.3307
X5.7087Y-5.7087
X5.7323Y-4.5472
X5.7362Y-4.6063
X5.7362Y-4.6654
X5.748Y-3.9764
X5.748Y-5.8661
X5.7559Y-4.8583
X5.7579Y-5.4331
X5.7579Y-5.4921
X5.7795Y-5.2677
X5.7874Y-5.3858
X5.8228Y-4.8504
X5.8268Y-5.5669
X5.8465Y-5.4921
X5.8563Y-4.8169
X5.8661Y-3.9764
X5.8661Y-5.8661
X5.8701Y-5.2835
X5.8807Y-4.9697
X5.8807Y-5.0697
X5.8819Y-5.0197
X5.8839Y-5.4232
X5.9055Y-4.1339
X5.9055Y-4.3307
X5.9055Y-4.5276
X5.9055Y-4.7244
X5.9055Y-4.9213
X5.9055Y-5.7087
X5.9331Y-5.4685
X5.937Y-5.2835
X5.9843Y-3.9764
X5.9843Y-5.8661
X6.0236Y-5.5669
X6.0787Y-5.1654
X6.0787Y-5.2835
X6.0866Y-5.4882
X6.1024Y-3.9764
X6.1024Y-4.1339
X6.1024Y-4.3307
X6.1024Y-4.5276
X6.1024Y-4.7244
X6.1024Y-4.9213
X6.1024Y-5.7087
X6.1024Y-5.8661
X6.1339Y-5.4016
X6.1732Y-5.4882
X6.2205Y-3.9764
X6.2205Y-5.5669
X6.2205Y-5.8661
X6.2283Y-5.2913
X6.2441Y-5.4724
X6.2992Y-4.1339
X6.2992Y-4.3307
X6.2992Y-4.5276
X6.2992Y-4.7244
X6.2992Y-4.9213
X6.2992Y-5.1181
X6.2992Y-5.7087
X6.3386Y-3.9764
X6.3386Y-5.4882
X6.3386Y-5.8661
X6.378Y-5.3071
X6.437Y-5.5236
X6.4409Y-5.4252
X6.4488Y-5.6142
X6.4567Y-3.9764
X6.4567Y-5.8661
X6.4724Y-5.4882
X6.4803Y-5.4252
X6.4961Y-4.1339
X6.4961Y-4.3307
X6.4961Y-4.5276
X6.4961Y-4.7244
X6.4961Y-4.9213
X6.4961Y-5.1181
X6.4961Y-5.7087
X6.5748Y-3.9764
X6.5748Y-5.8661
X6.5827Y-5.4803
X6.6142Y-5.6142
X6.6929Y-3.9764
X6.6929Y-4.1339
X6.6929Y-4.3307
X6.6929Y-4.5276
X6.6929Y-4.7244
X6.6929Y-5.1181
X6.6929Y-5.315
X6.6929Y-5.4252
X6.6929Y-5.5118
X6.6929Y-5.7087
X6.6929Y-5.8661
X6.811Y-3.9764
X6.811Y-5.8661
X6.8504Y-4.0945
X6.8504Y-4.6457
X6.8504Y-5.189
X6.8583Y-5.748
X6.9291Y-3.9764
X6.9291Y-4.0945
X6.9291Y-4.6457
X6.9291Y-5.189
X6.9291Y-5.748
X6.9291Y-5.8661
X7.0472Y-3.9764
X7.0472Y-5.8661
T2
X4.2913Y-4.4783
X4.2913Y-4.5768
X4.3701Y-4.4783
X4.3701Y-4.5768
T3
X4.1102Y-4.9185
X4.1102Y-5.0185
T4
X4.1846Y-4.2906
X4.1846Y-4.7646
T5
X5.7527Y-4.9197
X5.7927Y-5.1197
X5.8327Y-4.9197
T0
M30
