G04 #@! TF.GenerationSoftware,KiCad,Pcbnew,5.0.0-rc2-unknown-68f6e3a~65~ubuntu16.04.1*
G04 #@! TF.CreationDate,2018-06-12T13:32:27+01:00*
G04 #@! TF.ProjectId,gpsdo,677073646F2E6B696361645F70636200,rev?*
G04 #@! TF.SameCoordinates,Original*
G04 #@! TF.FileFunction,Legend,Top*
G04 #@! TF.FilePolarity,Positive*
%FSLAX46Y46*%
G04 Gerber Fmt 4.6, Leading zero omitted, Abs format (unit mm)*
G04 Created by KiCad (PCBNEW 5.0.0-rc2-unknown-68f6e3a~65~ubuntu16.04.1) date Tue Jun 12 13:32:27 2018*
%MOMM*%
%LPD*%
G01*
G04 APERTURE LIST*
%ADD10C,0.300000*%
%ADD11C,0.350000*%
%ADD12C,0.450000*%
%ADD13C,0.400000*%
%ADD14C,0.150000*%
%ADD15R,1.500000X0.300000*%
%ADD16R,0.300000X1.500000*%
%ADD17R,0.900000X0.750000*%
%ADD18R,0.620000X0.620000*%
%ADD19R,0.750000X0.900000*%
%ADD20R,1.000000X0.950000*%
%ADD21R,0.520000X0.520000*%
%ADD22R,0.950000X1.000000*%
%ADD23R,1.450000X0.450000*%
%ADD24R,1.100000X0.600000*%
%ADD25R,1.450000X0.300000*%
%ADD26R,1.800000X0.700000*%
%ADD27R,0.450000X1.450000*%
%ADD28R,0.470000X0.400000*%
%ADD29R,0.952000X1.702000*%
%ADD30C,0.787000*%
%ADD31C,1.000000*%
%ADD32R,5.000000X2.400000*%
%ADD33R,5.000000X2.300000*%
%ADD34C,1.500000*%
%ADD35C,3.200000*%
%ADD36R,0.950000X0.850000*%
%ADD37R,0.800000X1.000000*%
%ADD38R,1.900000X1.900000*%
%ADD39C,1.900000*%
G04 APERTURE END LIST*
D10*
X139778571Y-133607142D02*
X139992857Y-133678571D01*
X140350000Y-133678571D01*
X140492857Y-133607142D01*
X140564285Y-133535714D01*
X140635714Y-133392857D01*
X140635714Y-133250000D01*
X140564285Y-133107142D01*
X140492857Y-133035714D01*
X140350000Y-132964285D01*
X140064285Y-132892857D01*
X139921428Y-132821428D01*
X139850000Y-132750000D01*
X139778571Y-132607142D01*
X139778571Y-132464285D01*
X139850000Y-132321428D01*
X139921428Y-132250000D01*
X140064285Y-132178571D01*
X140421428Y-132178571D01*
X140635714Y-132250000D01*
X141278571Y-133678571D02*
X141278571Y-132178571D01*
X141635714Y-132178571D01*
X141850000Y-132250000D01*
X141992857Y-132392857D01*
X142064285Y-132535714D01*
X142135714Y-132821428D01*
X142135714Y-133035714D01*
X142064285Y-133321428D01*
X141992857Y-133464285D01*
X141850000Y-133607142D01*
X141635714Y-133678571D01*
X141278571Y-133678571D01*
X142707142Y-133250000D02*
X143421428Y-133250000D01*
X142564285Y-133678571D02*
X143064285Y-132178571D01*
X143564285Y-133678571D01*
X134614285Y-131607142D02*
X134828571Y-131678571D01*
X135185714Y-131678571D01*
X135328571Y-131607142D01*
X135400000Y-131535714D01*
X135471428Y-131392857D01*
X135471428Y-131250000D01*
X135400000Y-131107142D01*
X135328571Y-131035714D01*
X135185714Y-130964285D01*
X134900000Y-130892857D01*
X134757142Y-130821428D01*
X134685714Y-130750000D01*
X134614285Y-130607142D01*
X134614285Y-130464285D01*
X134685714Y-130321428D01*
X134757142Y-130250000D01*
X134900000Y-130178571D01*
X135257142Y-130178571D01*
X135471428Y-130250000D01*
X136971428Y-131535714D02*
X136900000Y-131607142D01*
X136685714Y-131678571D01*
X136542857Y-131678571D01*
X136328571Y-131607142D01*
X136185714Y-131464285D01*
X136114285Y-131321428D01*
X136042857Y-131035714D01*
X136042857Y-130821428D01*
X136114285Y-130535714D01*
X136185714Y-130392857D01*
X136328571Y-130250000D01*
X136542857Y-130178571D01*
X136685714Y-130178571D01*
X136900000Y-130250000D01*
X136971428Y-130321428D01*
X138328571Y-131678571D02*
X137614285Y-131678571D01*
X137614285Y-130178571D01*
X155342857Y-144678571D02*
X154842857Y-143964285D01*
X154485714Y-144678571D02*
X154485714Y-143178571D01*
X155057142Y-143178571D01*
X155200000Y-143250000D01*
X155271428Y-143321428D01*
X155342857Y-143464285D01*
X155342857Y-143678571D01*
X155271428Y-143821428D01*
X155200000Y-143892857D01*
X155057142Y-143964285D01*
X154485714Y-143964285D01*
X155985714Y-143892857D02*
X156485714Y-143892857D01*
X156700000Y-144678571D02*
X155985714Y-144678571D01*
X155985714Y-143178571D01*
X156700000Y-143178571D01*
X157842857Y-143892857D02*
X157342857Y-143892857D01*
X157342857Y-144678571D02*
X157342857Y-143178571D01*
X158057142Y-143178571D01*
X131257142Y-144578571D02*
X132114285Y-144578571D01*
X131685714Y-146078571D02*
X131685714Y-144578571D01*
X132471428Y-144578571D02*
X133471428Y-146078571D01*
X133471428Y-144578571D02*
X132471428Y-146078571D01*
X128950000Y-146078571D02*
X128450000Y-145364285D01*
X128092857Y-146078571D02*
X128092857Y-144578571D01*
X128664285Y-144578571D01*
X128807142Y-144650000D01*
X128878571Y-144721428D01*
X128950000Y-144864285D01*
X128950000Y-145078571D01*
X128878571Y-145221428D01*
X128807142Y-145292857D01*
X128664285Y-145364285D01*
X128092857Y-145364285D01*
X129450000Y-144578571D02*
X130450000Y-146078571D01*
X130450000Y-144578571D02*
X129450000Y-146078571D01*
X109185714Y-131807142D02*
X109400000Y-131878571D01*
X109757142Y-131878571D01*
X109900000Y-131807142D01*
X109971428Y-131735714D01*
X110042857Y-131592857D01*
X110042857Y-131450000D01*
X109971428Y-131307142D01*
X109900000Y-131235714D01*
X109757142Y-131164285D01*
X109471428Y-131092857D01*
X109328571Y-131021428D01*
X109257142Y-130950000D01*
X109185714Y-130807142D01*
X109185714Y-130664285D01*
X109257142Y-130521428D01*
X109328571Y-130450000D01*
X109471428Y-130378571D01*
X109828571Y-130378571D01*
X110042857Y-130450000D01*
X110471428Y-130378571D02*
X111328571Y-130378571D01*
X110900000Y-131878571D02*
X110900000Y-130378571D01*
X111757142Y-131450000D02*
X112471428Y-131450000D01*
X111614285Y-131878571D02*
X112114285Y-130378571D01*
X112614285Y-131878571D01*
X112900000Y-130378571D02*
X113757142Y-130378571D01*
X113328571Y-131878571D02*
X113328571Y-130378571D01*
X115000000Y-131878571D02*
X115000000Y-130378571D01*
X115571428Y-130378571D01*
X115714285Y-130450000D01*
X115785714Y-130521428D01*
X115857142Y-130664285D01*
X115857142Y-130878571D01*
X115785714Y-131021428D01*
X115714285Y-131092857D01*
X115571428Y-131164285D01*
X115000000Y-131164285D01*
X116357142Y-130378571D02*
X116714285Y-131878571D01*
X117000000Y-130807142D01*
X117285714Y-131878571D01*
X117642857Y-130378571D01*
X119071428Y-131878571D02*
X118571428Y-131164285D01*
X118214285Y-131878571D02*
X118214285Y-130378571D01*
X118785714Y-130378571D01*
X118928571Y-130450000D01*
X119000000Y-130521428D01*
X119071428Y-130664285D01*
X119071428Y-130878571D01*
X119000000Y-131021428D01*
X118928571Y-131092857D01*
X118785714Y-131164285D01*
X118214285Y-131164285D01*
D11*
X159674687Y-107464285D02*
X160061592Y-109130952D01*
X160865163Y-107464285D01*
X162918735Y-109130952D02*
X161490163Y-109130952D01*
X162204449Y-109130952D02*
X162516949Y-106630952D01*
X162234211Y-106988095D01*
X161966354Y-107226190D01*
X161713377Y-107345238D01*
X145976190Y-112904761D02*
X145976190Y-110904761D01*
X146642857Y-112333333D01*
X147309523Y-110904761D01*
X147309523Y-112904761D01*
X149119047Y-112904761D02*
X149119047Y-111857142D01*
X149023809Y-111666666D01*
X148833333Y-111571428D01*
X148452380Y-111571428D01*
X148261904Y-111666666D01*
X149119047Y-112809523D02*
X148928571Y-112904761D01*
X148452380Y-112904761D01*
X148261904Y-112809523D01*
X148166666Y-112619047D01*
X148166666Y-112428571D01*
X148261904Y-112238095D01*
X148452380Y-112142857D01*
X148928571Y-112142857D01*
X149119047Y-112047619D01*
X149785714Y-111571428D02*
X150547619Y-111571428D01*
X150071428Y-110904761D02*
X150071428Y-112619047D01*
X150166666Y-112809523D01*
X150357142Y-112904761D01*
X150547619Y-112904761D01*
X150928571Y-111571428D02*
X151690476Y-111571428D01*
X151214285Y-110904761D02*
X151214285Y-112619047D01*
X151309523Y-112809523D01*
X151500000Y-112904761D01*
X151690476Y-112904761D01*
X155023809Y-112714285D02*
X154928571Y-112809523D01*
X154642857Y-112904761D01*
X154452380Y-112904761D01*
X154166666Y-112809523D01*
X153976190Y-112619047D01*
X153880952Y-112428571D01*
X153785714Y-112047619D01*
X153785714Y-111761904D01*
X153880952Y-111380952D01*
X153976190Y-111190476D01*
X154166666Y-111000000D01*
X154452380Y-110904761D01*
X154642857Y-110904761D01*
X154928571Y-111000000D01*
X155023809Y-111095238D01*
X156166666Y-112904761D02*
X155976190Y-112809523D01*
X155880952Y-112714285D01*
X155785714Y-112523809D01*
X155785714Y-111952380D01*
X155880952Y-111761904D01*
X155976190Y-111666666D01*
X156166666Y-111571428D01*
X156452380Y-111571428D01*
X156642857Y-111666666D01*
X156738095Y-111761904D01*
X156833333Y-111952380D01*
X156833333Y-112523809D01*
X156738095Y-112714285D01*
X156642857Y-112809523D01*
X156452380Y-112904761D01*
X156166666Y-112904761D01*
X158547619Y-112904761D02*
X158547619Y-111857142D01*
X158452380Y-111666666D01*
X158261904Y-111571428D01*
X157880952Y-111571428D01*
X157690476Y-111666666D01*
X158547619Y-112809523D02*
X158357142Y-112904761D01*
X157880952Y-112904761D01*
X157690476Y-112809523D01*
X157595238Y-112619047D01*
X157595238Y-112428571D01*
X157690476Y-112238095D01*
X157880952Y-112142857D01*
X158357142Y-112142857D01*
X158547619Y-112047619D01*
X159214285Y-111571428D02*
X159976190Y-111571428D01*
X159500000Y-110904761D02*
X159500000Y-112619047D01*
X159595238Y-112809523D01*
X159785714Y-112904761D01*
X159976190Y-112904761D01*
X161404761Y-112809523D02*
X161214285Y-112904761D01*
X160833333Y-112904761D01*
X160642857Y-112809523D01*
X160547619Y-112619047D01*
X160547619Y-111857142D01*
X160642857Y-111666666D01*
X160833333Y-111571428D01*
X161214285Y-111571428D01*
X161404761Y-111666666D01*
X161500000Y-111857142D01*
X161500000Y-112047619D01*
X160547619Y-112238095D01*
X162261904Y-112809523D02*
X162452380Y-112904761D01*
X162833333Y-112904761D01*
X163023809Y-112809523D01*
X163119047Y-112619047D01*
X163119047Y-112523809D01*
X163023809Y-112333333D01*
X162833333Y-112238095D01*
X162547619Y-112238095D01*
X162357142Y-112142857D01*
X162261904Y-111952380D01*
X162261904Y-111857142D01*
X162357142Y-111666666D01*
X162547619Y-111571428D01*
X162833333Y-111571428D01*
X163023809Y-111666666D01*
D12*
X147696324Y-106750000D02*
X147473110Y-106630952D01*
X147115967Y-106630952D01*
X146743943Y-106750000D01*
X146476086Y-106988095D01*
X146327276Y-107226190D01*
X146148705Y-107702380D01*
X146104062Y-108059523D01*
X146163586Y-108535714D01*
X146252872Y-108773809D01*
X146461205Y-109011904D01*
X146803467Y-109130952D01*
X147041562Y-109130952D01*
X147413586Y-109011904D01*
X147547514Y-108892857D01*
X147651681Y-108059523D01*
X147175491Y-108059523D01*
X148589181Y-109130952D02*
X148901681Y-106630952D01*
X149854062Y-106630952D01*
X150077276Y-106750000D01*
X150181443Y-106869047D01*
X150270729Y-107107142D01*
X150226086Y-107464285D01*
X150077276Y-107702380D01*
X149943348Y-107821428D01*
X149690372Y-107940476D01*
X148737991Y-107940476D01*
X150985014Y-109011904D02*
X151327276Y-109130952D01*
X151922514Y-109130952D01*
X152175491Y-109011904D01*
X152309419Y-108892857D01*
X152458229Y-108654761D01*
X152487991Y-108416666D01*
X152398705Y-108178571D01*
X152294538Y-108059523D01*
X152071324Y-107940476D01*
X151610014Y-107821428D01*
X151386800Y-107702380D01*
X151282633Y-107583333D01*
X151193348Y-107345238D01*
X151223110Y-107107142D01*
X151371919Y-106869047D01*
X151505848Y-106750000D01*
X151758824Y-106630952D01*
X152354062Y-106630952D01*
X152696324Y-106750000D01*
X153470133Y-109130952D02*
X153782633Y-106630952D01*
X154377872Y-106630952D01*
X154720133Y-106750000D01*
X154928467Y-106988095D01*
X155017752Y-107226190D01*
X155077276Y-107702380D01*
X155032633Y-108059523D01*
X154854062Y-108535714D01*
X154705252Y-108773809D01*
X154437395Y-109011904D01*
X154065372Y-109130952D01*
X153470133Y-109130952D01*
X156758824Y-106630952D02*
X157235014Y-106630952D01*
X157458229Y-106750000D01*
X157666562Y-106988095D01*
X157726086Y-107464285D01*
X157621919Y-108297619D01*
X157443348Y-108773809D01*
X157175491Y-109011904D01*
X156922514Y-109130952D01*
X156446324Y-109130952D01*
X156223110Y-109011904D01*
X156014776Y-108773809D01*
X155955252Y-108297619D01*
X156059419Y-107464285D01*
X156237991Y-106988095D01*
X156505848Y-106750000D01*
X156758824Y-106630952D01*
D13*
X171130952Y-142095238D02*
X168630952Y-142095238D01*
X168630952Y-141142857D01*
X168750000Y-140904761D01*
X168869047Y-140785714D01*
X169107142Y-140666666D01*
X169464285Y-140666666D01*
X169702380Y-140785714D01*
X169821428Y-140904761D01*
X169940476Y-141142857D01*
X169940476Y-142095238D01*
X171130952Y-139595238D02*
X168630952Y-139595238D01*
X168630952Y-138642857D01*
X168750000Y-138404761D01*
X168869047Y-138285714D01*
X169107142Y-138166666D01*
X169464285Y-138166666D01*
X169702380Y-138285714D01*
X169821428Y-138404761D01*
X169940476Y-138642857D01*
X169940476Y-139595238D01*
X171011904Y-137214285D02*
X171130952Y-136857142D01*
X171130952Y-136261904D01*
X171011904Y-136023809D01*
X170892857Y-135904761D01*
X170654761Y-135785714D01*
X170416666Y-135785714D01*
X170178571Y-135904761D01*
X170059523Y-136023809D01*
X169940476Y-136261904D01*
X169821428Y-136738095D01*
X169702380Y-136976190D01*
X169583333Y-137095238D01*
X169345238Y-137214285D01*
X169107142Y-137214285D01*
X168869047Y-137095238D01*
X168750000Y-136976190D01*
X168630952Y-136738095D01*
X168630952Y-136142857D01*
X168750000Y-135785714D01*
X170892857Y-127678571D02*
X171011904Y-127797619D01*
X171130952Y-128154761D01*
X171130952Y-128392857D01*
X171011904Y-128750000D01*
X170773809Y-128988095D01*
X170535714Y-129107142D01*
X170059523Y-129226190D01*
X169702380Y-129226190D01*
X169226190Y-129107142D01*
X168988095Y-128988095D01*
X168750000Y-128750000D01*
X168630952Y-128392857D01*
X168630952Y-128154761D01*
X168750000Y-127797619D01*
X168869047Y-127678571D01*
X171130952Y-125416666D02*
X171130952Y-126607142D01*
X168630952Y-126607142D01*
X171130952Y-124583333D02*
X168630952Y-124583333D01*
X171130952Y-123154761D02*
X169702380Y-124226190D01*
X168630952Y-123154761D02*
X170059523Y-124583333D01*
X171130952Y-120773809D02*
X171130952Y-122202380D01*
X171130952Y-121488095D02*
X168630952Y-121488095D01*
X168988095Y-121726190D01*
X169226190Y-121964285D01*
X169345238Y-122202380D01*
X170992857Y-113678571D02*
X171111904Y-113797619D01*
X171230952Y-114154761D01*
X171230952Y-114392857D01*
X171111904Y-114750000D01*
X170873809Y-114988095D01*
X170635714Y-115107142D01*
X170159523Y-115226190D01*
X169802380Y-115226190D01*
X169326190Y-115107142D01*
X169088095Y-114988095D01*
X168850000Y-114750000D01*
X168730952Y-114392857D01*
X168730952Y-114154761D01*
X168850000Y-113797619D01*
X168969047Y-113678571D01*
X171230952Y-111416666D02*
X171230952Y-112607142D01*
X168730952Y-112607142D01*
X171230952Y-110583333D02*
X168730952Y-110583333D01*
X171230952Y-109154761D02*
X169802380Y-110226190D01*
X168730952Y-109154761D02*
X170159523Y-110583333D01*
X168969047Y-108202380D02*
X168850000Y-108083333D01*
X168730952Y-107845238D01*
X168730952Y-107250000D01*
X168850000Y-107011904D01*
X168969047Y-106892857D01*
X169207142Y-106773809D01*
X169445238Y-106773809D01*
X169802380Y-106892857D01*
X171230952Y-108321428D01*
X171230952Y-106773809D01*
D14*
G04 #@! TO.C,IC2*
X138350000Y-122950000D02*
X130050000Y-122950000D01*
X130050000Y-122950000D02*
X130050000Y-114050000D01*
X130050000Y-114050000D02*
X138950000Y-114050000D01*
X138950000Y-114050000D02*
X138950000Y-122350000D01*
X138950000Y-122350000D02*
X138350000Y-122950000D01*
G04 #@! TO.C,C1*
X135325000Y-137675000D02*
X135325000Y-137925000D01*
X135325000Y-137925000D02*
X134675000Y-137925000D01*
X134675000Y-137925000D02*
X134675000Y-137675000D01*
X134675000Y-137675000D02*
X135325000Y-137675000D01*
G04 #@! TO.C,C4*
X138575000Y-128075000D02*
X137925000Y-128075000D01*
X138575000Y-127825000D02*
X138575000Y-128075000D01*
X137925000Y-127825000D02*
X138575000Y-127825000D01*
X137925000Y-128075000D02*
X137925000Y-127825000D01*
G04 #@! TO.C,C6*
X143225000Y-124725000D02*
X142975000Y-124725000D01*
X142975000Y-124725000D02*
X142975000Y-124075000D01*
X142975000Y-124075000D02*
X143225000Y-124075000D01*
X143225000Y-124075000D02*
X143225000Y-124725000D01*
G04 #@! TO.C,C7*
X131425000Y-108625000D02*
X132075000Y-108625000D01*
X131425000Y-108875000D02*
X131425000Y-108625000D01*
X132075000Y-108875000D02*
X131425000Y-108875000D01*
X132075000Y-108625000D02*
X132075000Y-108875000D01*
G04 #@! TO.C,C8*
X124875000Y-121575000D02*
X124625000Y-121575000D01*
X124625000Y-121575000D02*
X124625000Y-120925000D01*
X124625000Y-120925000D02*
X124875000Y-120925000D01*
X124875000Y-120925000D02*
X124875000Y-121575000D01*
G04 #@! TO.C,C9*
X144125000Y-116675000D02*
X144125000Y-117325000D01*
X143875000Y-116675000D02*
X144125000Y-116675000D01*
X143875000Y-117325000D02*
X143875000Y-116675000D01*
X144125000Y-117325000D02*
X143875000Y-117325000D01*
G04 #@! TO.C,C10*
X139525000Y-138875000D02*
X139525000Y-139525000D01*
X139275000Y-138875000D02*
X139525000Y-138875000D01*
X139275000Y-139525000D02*
X139275000Y-138875000D01*
X139525000Y-139525000D02*
X139275000Y-139525000D01*
G04 #@! TO.C,C11*
X136925000Y-108625000D02*
X137575000Y-108625000D01*
X136925000Y-108875000D02*
X136925000Y-108625000D01*
X137575000Y-108875000D02*
X136925000Y-108875000D01*
X137575000Y-108625000D02*
X137575000Y-108875000D01*
G04 #@! TO.C,C12*
X142275000Y-138875000D02*
X142525000Y-138875000D01*
X142525000Y-138875000D02*
X142525000Y-139525000D01*
X142525000Y-139525000D02*
X142275000Y-139525000D01*
X142275000Y-139525000D02*
X142275000Y-138875000D01*
G04 #@! TO.C,C13*
X130575000Y-108625000D02*
X130575000Y-108875000D01*
X130575000Y-108875000D02*
X129925000Y-108875000D01*
X129925000Y-108875000D02*
X129925000Y-108625000D01*
X129925000Y-108625000D02*
X130575000Y-108625000D01*
G04 #@! TO.C,C14*
X145325000Y-133475000D02*
X145325000Y-134125000D01*
X145075000Y-133475000D02*
X145325000Y-133475000D01*
X145075000Y-134125000D02*
X145075000Y-133475000D01*
X145325000Y-134125000D02*
X145075000Y-134125000D01*
G04 #@! TO.C,C15*
X124625000Y-122425000D02*
X124875000Y-122425000D01*
X124875000Y-122425000D02*
X124875000Y-123075000D01*
X124875000Y-123075000D02*
X124625000Y-123075000D01*
X124625000Y-123075000D02*
X124625000Y-122425000D01*
G04 #@! TO.C,C16*
X139675000Y-128125000D02*
X139675000Y-127875000D01*
X139675000Y-127875000D02*
X140325000Y-127875000D01*
X140325000Y-127875000D02*
X140325000Y-128125000D01*
X140325000Y-128125000D02*
X139675000Y-128125000D01*
G04 #@! TO.C,C17*
X143875000Y-115825000D02*
X143875000Y-115175000D01*
X144125000Y-115825000D02*
X143875000Y-115825000D01*
X144125000Y-115175000D02*
X144125000Y-115825000D01*
X143875000Y-115175000D02*
X144125000Y-115175000D01*
G04 #@! TO.C,C18*
X152475000Y-134525000D02*
X152475000Y-133875000D01*
X152725000Y-134525000D02*
X152475000Y-134525000D01*
X152725000Y-133875000D02*
X152725000Y-134525000D01*
X152475000Y-133875000D02*
X152725000Y-133875000D01*
G04 #@! TO.C,C19*
X147875000Y-136225000D02*
X147875000Y-135975000D01*
X147875000Y-135975000D02*
X148525000Y-135975000D01*
X148525000Y-135975000D02*
X148525000Y-136225000D01*
X148525000Y-136225000D02*
X147875000Y-136225000D01*
G04 #@! TO.C,C20*
X162925000Y-139075000D02*
X162925000Y-139725000D01*
X162675000Y-139075000D02*
X162925000Y-139075000D01*
X162675000Y-139725000D02*
X162675000Y-139075000D01*
X162925000Y-139725000D02*
X162675000Y-139725000D01*
G04 #@! TO.C,C21*
X129425000Y-136275000D02*
X129425000Y-136525000D01*
X129425000Y-136525000D02*
X128775000Y-136525000D01*
X128775000Y-136525000D02*
X128775000Y-136275000D01*
X128775000Y-136275000D02*
X129425000Y-136275000D01*
G04 #@! TO.C,C23*
X113975000Y-117175000D02*
X113975000Y-116925000D01*
X113975000Y-116925000D02*
X114625000Y-116925000D01*
X114625000Y-116925000D02*
X114625000Y-117175000D01*
X114625000Y-117175000D02*
X113975000Y-117175000D01*
G04 #@! TO.C,C24*
X114625000Y-120125000D02*
X113975000Y-120125000D01*
X114625000Y-119875000D02*
X114625000Y-120125000D01*
X113975000Y-119875000D02*
X114625000Y-119875000D01*
X113975000Y-120125000D02*
X113975000Y-119875000D01*
G04 #@! TO.C,C25*
X116125000Y-124525000D02*
X115875000Y-124525000D01*
X115875000Y-124525000D02*
X115875000Y-123875000D01*
X115875000Y-123875000D02*
X116125000Y-123875000D01*
X116125000Y-123875000D02*
X116125000Y-124525000D01*
G04 #@! TO.C,D5*
X111275000Y-129000000D02*
X111525000Y-128675000D01*
X111275000Y-129000000D02*
X111525000Y-129325000D01*
X111525000Y-128675000D02*
X111525000Y-129325000D01*
G04 #@! TO.C,D6*
X117067500Y-128667143D02*
X117067500Y-129317143D01*
X116817500Y-128992143D02*
X117067500Y-129317143D01*
X116817500Y-128992143D02*
X117067500Y-128667143D01*
G04 #@! TO.C,IC1*
X140375000Y-136975000D02*
X139775000Y-137575000D01*
X140375000Y-135625000D02*
X140375000Y-136975000D01*
X138425000Y-135625000D02*
X140375000Y-135625000D01*
X138425000Y-137575000D02*
X138425000Y-135625000D01*
X139775000Y-137575000D02*
X138425000Y-137575000D01*
G04 #@! TO.C,IC3*
X152250000Y-135850000D02*
X152250000Y-135850000D01*
X152250000Y-135850000D02*
X152250000Y-137750000D01*
X152250000Y-137750000D02*
X151750000Y-137750000D01*
X151750000Y-137750000D02*
X151750000Y-136350000D01*
X151750000Y-136350000D02*
X152250000Y-135850000D01*
G04 #@! TO.C,IC4*
X160175000Y-137800000D02*
X158825000Y-137800000D01*
X158825000Y-137800000D02*
X158825000Y-135800000D01*
X158825000Y-135800000D02*
X160775000Y-135800000D01*
X160775000Y-135800000D02*
X160775000Y-137200000D01*
X160775000Y-137200000D02*
X160175000Y-137800000D01*
G04 #@! TO.C,IC5*
X123650000Y-143700000D02*
X117550000Y-143700000D01*
X117550000Y-143700000D02*
X117550000Y-134900000D01*
X117550000Y-134900000D02*
X124250000Y-134900000D01*
X124250000Y-134900000D02*
X124250000Y-143100000D01*
X124250000Y-143100000D02*
X123650000Y-143700000D01*
G04 #@! TO.C,IC6*
X116025000Y-120375000D02*
X116025000Y-119025000D01*
X116025000Y-119025000D02*
X117975000Y-119025000D01*
X117975000Y-119025000D02*
X117975000Y-120975000D01*
X117975000Y-120975000D02*
X116625000Y-120975000D01*
X116625000Y-120975000D02*
X116025000Y-120375000D01*
G04 #@! TO.C,IC7*
X110800000Y-142400000D02*
X112200000Y-142400000D01*
X110200000Y-144400000D02*
X112200000Y-144400000D01*
X110800000Y-142400000D02*
G75*
G03X110200000Y-142400000I-300000J0D01*
G01*
G04 #@! TO.C,P6*
X112200000Y-109100000D02*
X108000000Y-109100000D01*
X108000000Y-109100000D02*
X108000000Y-109100000D01*
X104600000Y-109100000D02*
X96100000Y-109100000D01*
X96100000Y-109100000D02*
X96100000Y-120900000D01*
X96100000Y-120900000D02*
X104600000Y-120900000D01*
X104600000Y-120900000D02*
X104600000Y-120900000D01*
X108000000Y-120900000D02*
X112200000Y-120900000D01*
X112200000Y-120900000D02*
X112200000Y-109100000D01*
X112200000Y-109100000D02*
X112200000Y-109100000D01*
G04 #@! TO.C,R2*
X152475000Y-130875000D02*
X152725000Y-130875000D01*
X152725000Y-130875000D02*
X152725000Y-131525000D01*
X152725000Y-131525000D02*
X152475000Y-131525000D01*
X152475000Y-131525000D02*
X152475000Y-130875000D01*
G04 #@! TO.C,R3*
X152725000Y-139725000D02*
X152475000Y-139725000D01*
X152475000Y-139725000D02*
X152475000Y-139075000D01*
X152475000Y-139075000D02*
X152725000Y-139075000D01*
X152725000Y-139075000D02*
X152725000Y-139725000D01*
G04 #@! TO.C,R4*
X156325000Y-133875000D02*
X156325000Y-134525000D01*
X156075000Y-133875000D02*
X156325000Y-133875000D01*
X156075000Y-134525000D02*
X156075000Y-133875000D01*
X156325000Y-134525000D02*
X156075000Y-134525000D01*
G04 #@! TO.C,R7*
X111275000Y-127525000D02*
X111275000Y-126875000D01*
X111525000Y-127525000D02*
X111275000Y-127525000D01*
X111525000Y-126875000D02*
X111525000Y-127525000D01*
X111275000Y-126875000D02*
X111525000Y-126875000D01*
G04 #@! TO.C,R8*
X116875000Y-126875000D02*
X117125000Y-126875000D01*
X117125000Y-126875000D02*
X117125000Y-127525000D01*
X117125000Y-127525000D02*
X116875000Y-127525000D01*
X116875000Y-127525000D02*
X116875000Y-126875000D01*
G04 #@! TO.C,R9*
X116775000Y-115525000D02*
X116775000Y-114875000D01*
X117025000Y-115525000D02*
X116775000Y-115525000D01*
X117025000Y-114875000D02*
X117025000Y-115525000D01*
X116775000Y-114875000D02*
X117025000Y-114875000D01*
G04 #@! TO.C,Y1*
X146400000Y-121950000D02*
X146400000Y-121850000D01*
X145350000Y-122600000D02*
X145650000Y-122600000D01*
X144600000Y-121950000D02*
X144600000Y-121850000D01*
X145350000Y-121200000D02*
X145650000Y-121200000D01*
G04 #@! TO.C,Y2*
X143950000Y-136500000D02*
X143950000Y-135100000D01*
X146450000Y-137100000D02*
X146450000Y-135100000D01*
X143950000Y-136500000D02*
G75*
G03X143950000Y-137100000I0J-300000D01*
G01*
G04 #@! TO.C,J1*
X103130000Y-128740000D02*
X103130000Y-123660000D01*
X103130000Y-123660000D02*
X105670000Y-123660000D01*
X105670000Y-123660000D02*
X105670000Y-128740000D01*
X105670000Y-128740000D02*
X103130000Y-128740000D01*
G04 #@! TD*
%LPC*%
G36*
X180000000Y-100000000D02*
X180000000Y-102000000D01*
X100000000Y-102000000D01*
X100000000Y-100000000D01*
X180000000Y-100000000D01*
G37*
X180000000Y-100000000D02*
X180000000Y-102000000D01*
X100000000Y-102000000D01*
X100000000Y-100000000D01*
X180000000Y-100000000D01*
G36*
X180000000Y-150000000D02*
X180000000Y-148000000D01*
X100000000Y-148000000D01*
X100000000Y-150000000D01*
X180000000Y-150000000D01*
G37*
X180000000Y-150000000D02*
X180000000Y-148000000D01*
X100000000Y-148000000D01*
X100000000Y-150000000D01*
X180000000Y-150000000D01*
D15*
G04 #@! TO.C,IC2*
X140200000Y-122250000D03*
X140200000Y-121750000D03*
X140200000Y-121250000D03*
X140200000Y-120750000D03*
X140200000Y-120250000D03*
X140200000Y-119750000D03*
X140200000Y-119250000D03*
X140200000Y-118750000D03*
X140200000Y-118250000D03*
X140200000Y-117750000D03*
X140200000Y-117250000D03*
X140200000Y-116750000D03*
X140200000Y-116250000D03*
X140200000Y-115750000D03*
X140200000Y-115250000D03*
X140200000Y-114750000D03*
D16*
X138250000Y-112800000D03*
X137750000Y-112800000D03*
X137250000Y-112800000D03*
X136750000Y-112800000D03*
X136250000Y-112800000D03*
X135750000Y-112800000D03*
X135250000Y-112800000D03*
X134750000Y-112800000D03*
X134250000Y-112800000D03*
X133750000Y-112800000D03*
X133250000Y-112800000D03*
X132750000Y-112800000D03*
X132250000Y-112800000D03*
X131750000Y-112800000D03*
X131250000Y-112800000D03*
X130750000Y-112800000D03*
D15*
X128800000Y-114750000D03*
X128800000Y-115250000D03*
X128800000Y-115750000D03*
X128800000Y-116250000D03*
X128800000Y-116750000D03*
X128800000Y-117250000D03*
X128800000Y-117750000D03*
X128800000Y-118250000D03*
X128800000Y-118750000D03*
X128800000Y-119250000D03*
X128800000Y-119750000D03*
X128800000Y-120250000D03*
X128800000Y-120750000D03*
X128800000Y-121250000D03*
X128800000Y-121750000D03*
X128800000Y-122250000D03*
D16*
X130750000Y-124200000D03*
X131250000Y-124200000D03*
X131750000Y-124200000D03*
X132250000Y-124200000D03*
X132750000Y-124200000D03*
X133250000Y-124200000D03*
X133750000Y-124200000D03*
X134250000Y-124200000D03*
X134750000Y-124200000D03*
X135250000Y-124200000D03*
X135750000Y-124200000D03*
X136250000Y-124200000D03*
X136750000Y-124200000D03*
X137250000Y-124200000D03*
X137750000Y-124200000D03*
X138250000Y-124200000D03*
G04 #@! TD*
D17*
G04 #@! TO.C,C1*
X135000000Y-137100000D03*
X135000000Y-138500000D03*
G04 #@! TD*
D18*
G04 #@! TO.C,C2*
X144450000Y-118500000D03*
X143550000Y-118500000D03*
G04 #@! TD*
G04 #@! TO.C,C3*
X143100000Y-122350000D03*
X143100000Y-121450000D03*
G04 #@! TD*
D17*
G04 #@! TO.C,C4*
X138250000Y-127250000D03*
X138250000Y-128650000D03*
G04 #@! TD*
D18*
G04 #@! TO.C,C5*
X147900000Y-121450000D03*
X147900000Y-122350000D03*
G04 #@! TD*
D19*
G04 #@! TO.C,C6*
X143800000Y-124400000D03*
X142400000Y-124400000D03*
G04 #@! TD*
D17*
G04 #@! TO.C,C7*
X131750000Y-109450000D03*
X131750000Y-108050000D03*
G04 #@! TD*
D19*
G04 #@! TO.C,C8*
X125450000Y-121250000D03*
X124050000Y-121250000D03*
G04 #@! TD*
G04 #@! TO.C,C9*
X143300000Y-117000000D03*
X144700000Y-117000000D03*
G04 #@! TD*
G04 #@! TO.C,C10*
X138700000Y-139200000D03*
X140100000Y-139200000D03*
G04 #@! TD*
D17*
G04 #@! TO.C,C11*
X137250000Y-109450000D03*
X137250000Y-108050000D03*
G04 #@! TD*
D19*
G04 #@! TO.C,C12*
X141700000Y-139200000D03*
X143100000Y-139200000D03*
G04 #@! TD*
D17*
G04 #@! TO.C,C13*
X130250000Y-108050000D03*
X130250000Y-109450000D03*
G04 #@! TD*
D19*
G04 #@! TO.C,C14*
X144500000Y-133800000D03*
X145900000Y-133800000D03*
G04 #@! TD*
G04 #@! TO.C,C15*
X124050000Y-122750000D03*
X125450000Y-122750000D03*
G04 #@! TD*
D20*
G04 #@! TO.C,C16*
X140000000Y-128800000D03*
X140000000Y-127200000D03*
G04 #@! TD*
D19*
G04 #@! TO.C,C17*
X144700000Y-115500000D03*
X143300000Y-115500000D03*
G04 #@! TD*
G04 #@! TO.C,C18*
X153300000Y-134200000D03*
X151900000Y-134200000D03*
G04 #@! TD*
D17*
G04 #@! TO.C,C19*
X148200000Y-136800000D03*
X148200000Y-135400000D03*
G04 #@! TD*
D19*
G04 #@! TO.C,C20*
X162100000Y-139400000D03*
X163500000Y-139400000D03*
G04 #@! TD*
D17*
G04 #@! TO.C,C21*
X129100000Y-135700000D03*
X129100000Y-137100000D03*
G04 #@! TD*
D18*
G04 #@! TO.C,C22*
X113600000Y-143650000D03*
X113600000Y-142750000D03*
G04 #@! TD*
D17*
G04 #@! TO.C,C23*
X114300000Y-117750000D03*
X114300000Y-116350000D03*
G04 #@! TD*
G04 #@! TO.C,C24*
X114300000Y-119300000D03*
X114300000Y-120700000D03*
G04 #@! TD*
D19*
G04 #@! TO.C,C25*
X116700000Y-124200000D03*
X115300000Y-124200000D03*
G04 #@! TD*
D18*
G04 #@! TO.C,C26*
X108850000Y-142600000D03*
X107950000Y-142600000D03*
G04 #@! TD*
G04 #@! TO.C,C27*
X109350000Y-139400000D03*
X110250000Y-139400000D03*
G04 #@! TD*
D21*
G04 #@! TO.C,D1*
X174800000Y-141200000D03*
X175600000Y-141200000D03*
G04 #@! TD*
G04 #@! TO.C,D2*
X175600000Y-127200000D03*
X174800000Y-127200000D03*
G04 #@! TD*
G04 #@! TO.C,D3*
X175400000Y-113200000D03*
X174600000Y-113200000D03*
G04 #@! TD*
G04 #@! TO.C,D4*
X104200000Y-133800000D03*
X105000000Y-133800000D03*
G04 #@! TD*
D22*
G04 #@! TO.C,D5*
X110600000Y-129000000D03*
X112200000Y-129000000D03*
G04 #@! TD*
G04 #@! TO.C,D6*
X117742500Y-128992143D03*
X116142500Y-128992143D03*
G04 #@! TD*
D23*
G04 #@! TO.C,IC1*
X137200000Y-137575000D03*
X137200000Y-136925000D03*
X137200000Y-136275000D03*
X137200000Y-135625000D03*
X141600000Y-135625000D03*
X141600000Y-136275000D03*
X141600000Y-136925000D03*
X141600000Y-137575000D03*
G04 #@! TD*
D24*
G04 #@! TO.C,IC3*
X150700000Y-135850000D03*
X150700000Y-136800000D03*
X150700000Y-137750000D03*
X153300000Y-137750000D03*
X153300000Y-135850000D03*
G04 #@! TD*
D25*
G04 #@! TO.C,IC4*
X162000000Y-137800000D03*
X162000000Y-137300000D03*
X162000000Y-136800000D03*
X162000000Y-136300000D03*
X162000000Y-135800000D03*
X157600000Y-135800000D03*
X157600000Y-136300000D03*
X157600000Y-136800000D03*
X157600000Y-137300000D03*
X157600000Y-137800000D03*
G04 #@! TD*
D26*
G04 #@! TO.C,IC5*
X125650000Y-143700000D03*
X125650000Y-142600000D03*
X125650000Y-141500000D03*
X125650000Y-140400000D03*
X125650000Y-139300000D03*
X125650000Y-138200000D03*
X125650000Y-137100000D03*
X125650000Y-136000000D03*
X125650000Y-134900000D03*
X116150000Y-134900000D03*
X116150000Y-136000000D03*
X116150000Y-137100000D03*
X116150000Y-138200000D03*
X116150000Y-139300000D03*
X116150000Y-140400000D03*
X116150000Y-141500000D03*
X116150000Y-142600000D03*
X116150000Y-143700000D03*
G04 #@! TD*
D27*
G04 #@! TO.C,IC6*
X116025000Y-122200000D03*
X116675000Y-122200000D03*
X117325000Y-122200000D03*
X117975000Y-122200000D03*
X117975000Y-117800000D03*
X117325000Y-117800000D03*
X116675000Y-117800000D03*
X116025000Y-117800000D03*
G04 #@! TD*
D28*
G04 #@! TO.C,IC7*
X110285000Y-142750000D03*
X110285000Y-143400000D03*
X110285000Y-144050000D03*
X112115000Y-144050000D03*
X112115000Y-143400000D03*
X112115000Y-142750000D03*
D29*
X111200000Y-143400000D03*
G04 #@! TD*
D30*
G04 #@! TO.C,P1*
X147770000Y-128770000D03*
X146500000Y-128770000D03*
X147770000Y-127500000D03*
X146500000Y-127500000D03*
X147770000Y-126230000D03*
X146500000Y-126230000D03*
D31*
X147135000Y-130040000D03*
X148151000Y-124960000D03*
X146119000Y-124960000D03*
G04 #@! TD*
D32*
G04 #@! TO.C,P2*
X175500000Y-143375000D03*
X175500000Y-134625000D03*
D33*
X175500000Y-139000000D03*
G04 #@! TD*
G04 #@! TO.C,P3*
X175500000Y-125000000D03*
D32*
X175500000Y-120625000D03*
X175500000Y-129375000D03*
G04 #@! TD*
G04 #@! TO.C,P4*
X175500000Y-115375000D03*
X175500000Y-106625000D03*
D33*
X175500000Y-111000000D03*
G04 #@! TD*
G04 #@! TO.C,P5*
X104500000Y-136000000D03*
D32*
X104500000Y-140375000D03*
X104500000Y-131625000D03*
G04 #@! TD*
D34*
G04 #@! TO.C,P6*
X111000000Y-116250000D03*
X111000000Y-113750000D03*
X109000000Y-113750000D03*
X109000000Y-116250000D03*
D35*
X106290000Y-121020000D03*
X106290000Y-108980000D03*
G04 #@! TD*
D18*
G04 #@! TO.C,R1*
X147850000Y-120000000D03*
X146950000Y-120000000D03*
G04 #@! TD*
D19*
G04 #@! TO.C,R2*
X151900000Y-131200000D03*
X153300000Y-131200000D03*
G04 #@! TD*
G04 #@! TO.C,R3*
X153300000Y-139400000D03*
X151900000Y-139400000D03*
G04 #@! TD*
G04 #@! TO.C,R4*
X155500000Y-134200000D03*
X156900000Y-134200000D03*
G04 #@! TD*
D18*
G04 #@! TO.C,R5*
X108800000Y-143950000D03*
X108800000Y-144850000D03*
G04 #@! TD*
D19*
G04 #@! TO.C,R7*
X112100000Y-127200000D03*
X110700000Y-127200000D03*
G04 #@! TD*
G04 #@! TO.C,R8*
X116300000Y-127200000D03*
X117700000Y-127200000D03*
G04 #@! TD*
G04 #@! TO.C,R9*
X117600000Y-115200000D03*
X116200000Y-115200000D03*
G04 #@! TD*
D31*
G04 #@! TO.C,TP1*
X142000000Y-130800000D03*
G04 #@! TD*
G04 #@! TO.C,TP2*
X136400000Y-133000000D03*
G04 #@! TD*
G04 #@! TO.C,TP3*
X132000000Y-143200000D03*
G04 #@! TD*
G04 #@! TO.C,TP4*
X129600000Y-143200000D03*
G04 #@! TD*
D36*
G04 #@! TO.C,Y1*
X144775000Y-122475000D03*
X146225000Y-122475000D03*
X146225000Y-121325000D03*
X144775000Y-121325000D03*
G04 #@! TD*
D37*
G04 #@! TO.C,Y2*
X144150000Y-136800000D03*
X146250000Y-136800000D03*
X146250000Y-135400000D03*
X144150000Y-135400000D03*
G04 #@! TD*
D31*
G04 #@! TO.C,TP5*
X156200000Y-141800000D03*
G04 #@! TD*
D18*
G04 #@! TO.C,R6*
X111650000Y-141000000D03*
X110750000Y-141000000D03*
G04 #@! TD*
G04 #@! TO.C,L1*
X111650000Y-139400000D03*
X111650000Y-138500000D03*
G04 #@! TD*
D38*
G04 #@! TO.C,J1*
X104400000Y-127470000D03*
D39*
X104400000Y-124930000D03*
G04 #@! TD*
M02*
