G04 #@! TF.GenerationSoftware,KiCad,Pcbnew,5.0.0-rc2-unknown-68f6e3a~65~ubuntu16.04.1*
G04 #@! TF.CreationDate,2018-06-12T13:32:27+01:00*
G04 #@! TF.ProjectId,gpsdo,677073646F2E6B696361645F70636200,rev?*
G04 #@! TF.SameCoordinates,Original*
G04 #@! TF.FileFunction,Paste,Top*
G04 #@! TF.FilePolarity,Positive*
%FSLAX46Y46*%
G04 Gerber Fmt 4.6, Leading zero omitted, Abs format (unit mm)*
G04 Created by KiCad (PCBNEW 5.0.0-rc2-unknown-68f6e3a~65~ubuntu16.04.1) date Tue Jun 12 13:32:27 2018*
%MOMM*%
%LPD*%
G01*
G04 APERTURE LIST*
%ADD10R,1.500000X0.300000*%
%ADD11R,0.300000X1.500000*%
%ADD12R,0.900000X0.750000*%
%ADD13R,0.620000X0.620000*%
%ADD14R,0.750000X0.900000*%
%ADD15R,1.000000X0.950000*%
%ADD16R,0.520000X0.520000*%
%ADD17R,0.950000X1.000000*%
%ADD18R,1.450000X0.450000*%
%ADD19R,1.100000X0.600000*%
%ADD20R,1.450000X0.300000*%
%ADD21R,1.800000X0.700000*%
%ADD22R,0.450000X1.450000*%
%ADD23R,0.470000X0.400000*%
%ADD24R,0.500000X0.500000*%
%ADD25R,5.000000X2.400000*%
%ADD26R,5.000000X2.300000*%
%ADD27R,0.950000X0.850000*%
%ADD28R,0.800000X1.000000*%
G04 APERTURE END LIST*
D10*
G04 #@! TO.C,IC2*
X140200000Y-122250000D03*
X140200000Y-121750000D03*
X140200000Y-121250000D03*
X140200000Y-120750000D03*
X140200000Y-120250000D03*
X140200000Y-119750000D03*
X140200000Y-119250000D03*
X140200000Y-118750000D03*
X140200000Y-118250000D03*
X140200000Y-117750000D03*
X140200000Y-117250000D03*
X140200000Y-116750000D03*
X140200000Y-116250000D03*
X140200000Y-115750000D03*
X140200000Y-115250000D03*
X140200000Y-114750000D03*
D11*
X138250000Y-112800000D03*
X137750000Y-112800000D03*
X137250000Y-112800000D03*
X136750000Y-112800000D03*
X136250000Y-112800000D03*
X135750000Y-112800000D03*
X135250000Y-112800000D03*
X134750000Y-112800000D03*
X134250000Y-112800000D03*
X133750000Y-112800000D03*
X133250000Y-112800000D03*
X132750000Y-112800000D03*
X132250000Y-112800000D03*
X131750000Y-112800000D03*
X131250000Y-112800000D03*
X130750000Y-112800000D03*
D10*
X128800000Y-114750000D03*
X128800000Y-115250000D03*
X128800000Y-115750000D03*
X128800000Y-116250000D03*
X128800000Y-116750000D03*
X128800000Y-117250000D03*
X128800000Y-117750000D03*
X128800000Y-118250000D03*
X128800000Y-118750000D03*
X128800000Y-119250000D03*
X128800000Y-119750000D03*
X128800000Y-120250000D03*
X128800000Y-120750000D03*
X128800000Y-121250000D03*
X128800000Y-121750000D03*
X128800000Y-122250000D03*
D11*
X130750000Y-124200000D03*
X131250000Y-124200000D03*
X131750000Y-124200000D03*
X132250000Y-124200000D03*
X132750000Y-124200000D03*
X133250000Y-124200000D03*
X133750000Y-124200000D03*
X134250000Y-124200000D03*
X134750000Y-124200000D03*
X135250000Y-124200000D03*
X135750000Y-124200000D03*
X136250000Y-124200000D03*
X136750000Y-124200000D03*
X137250000Y-124200000D03*
X137750000Y-124200000D03*
X138250000Y-124200000D03*
G04 #@! TD*
D12*
G04 #@! TO.C,C1*
X135000000Y-137100000D03*
X135000000Y-138500000D03*
G04 #@! TD*
D13*
G04 #@! TO.C,C2*
X144450000Y-118500000D03*
X143550000Y-118500000D03*
G04 #@! TD*
G04 #@! TO.C,C3*
X143100000Y-122350000D03*
X143100000Y-121450000D03*
G04 #@! TD*
D12*
G04 #@! TO.C,C4*
X138250000Y-127250000D03*
X138250000Y-128650000D03*
G04 #@! TD*
D13*
G04 #@! TO.C,C5*
X147900000Y-121450000D03*
X147900000Y-122350000D03*
G04 #@! TD*
D14*
G04 #@! TO.C,C6*
X143800000Y-124400000D03*
X142400000Y-124400000D03*
G04 #@! TD*
D12*
G04 #@! TO.C,C7*
X131750000Y-109450000D03*
X131750000Y-108050000D03*
G04 #@! TD*
D14*
G04 #@! TO.C,C8*
X125450000Y-121250000D03*
X124050000Y-121250000D03*
G04 #@! TD*
G04 #@! TO.C,C9*
X143300000Y-117000000D03*
X144700000Y-117000000D03*
G04 #@! TD*
G04 #@! TO.C,C10*
X138700000Y-139200000D03*
X140100000Y-139200000D03*
G04 #@! TD*
D12*
G04 #@! TO.C,C11*
X137250000Y-109450000D03*
X137250000Y-108050000D03*
G04 #@! TD*
D14*
G04 #@! TO.C,C12*
X141700000Y-139200000D03*
X143100000Y-139200000D03*
G04 #@! TD*
D12*
G04 #@! TO.C,C13*
X130250000Y-108050000D03*
X130250000Y-109450000D03*
G04 #@! TD*
D14*
G04 #@! TO.C,C14*
X144500000Y-133800000D03*
X145900000Y-133800000D03*
G04 #@! TD*
G04 #@! TO.C,C15*
X124050000Y-122750000D03*
X125450000Y-122750000D03*
G04 #@! TD*
D15*
G04 #@! TO.C,C16*
X140000000Y-128800000D03*
X140000000Y-127200000D03*
G04 #@! TD*
D14*
G04 #@! TO.C,C17*
X144700000Y-115500000D03*
X143300000Y-115500000D03*
G04 #@! TD*
G04 #@! TO.C,C18*
X153300000Y-134200000D03*
X151900000Y-134200000D03*
G04 #@! TD*
D12*
G04 #@! TO.C,C19*
X148200000Y-136800000D03*
X148200000Y-135400000D03*
G04 #@! TD*
D14*
G04 #@! TO.C,C20*
X162100000Y-139400000D03*
X163500000Y-139400000D03*
G04 #@! TD*
D12*
G04 #@! TO.C,C21*
X129100000Y-135700000D03*
X129100000Y-137100000D03*
G04 #@! TD*
D13*
G04 #@! TO.C,C22*
X113600000Y-143650000D03*
X113600000Y-142750000D03*
G04 #@! TD*
D12*
G04 #@! TO.C,C23*
X114300000Y-117750000D03*
X114300000Y-116350000D03*
G04 #@! TD*
G04 #@! TO.C,C24*
X114300000Y-119300000D03*
X114300000Y-120700000D03*
G04 #@! TD*
D14*
G04 #@! TO.C,C25*
X116700000Y-124200000D03*
X115300000Y-124200000D03*
G04 #@! TD*
D13*
G04 #@! TO.C,C26*
X108850000Y-142600000D03*
X107950000Y-142600000D03*
G04 #@! TD*
G04 #@! TO.C,C27*
X109350000Y-139400000D03*
X110250000Y-139400000D03*
G04 #@! TD*
D16*
G04 #@! TO.C,D1*
X174800000Y-141200000D03*
X175600000Y-141200000D03*
G04 #@! TD*
G04 #@! TO.C,D2*
X175600000Y-127200000D03*
X174800000Y-127200000D03*
G04 #@! TD*
G04 #@! TO.C,D3*
X175400000Y-113200000D03*
X174600000Y-113200000D03*
G04 #@! TD*
G04 #@! TO.C,D4*
X104200000Y-133800000D03*
X105000000Y-133800000D03*
G04 #@! TD*
D17*
G04 #@! TO.C,D5*
X110600000Y-129000000D03*
X112200000Y-129000000D03*
G04 #@! TD*
G04 #@! TO.C,D6*
X117742500Y-128992143D03*
X116142500Y-128992143D03*
G04 #@! TD*
D18*
G04 #@! TO.C,IC1*
X137200000Y-137575000D03*
X137200000Y-136925000D03*
X137200000Y-136275000D03*
X137200000Y-135625000D03*
X141600000Y-135625000D03*
X141600000Y-136275000D03*
X141600000Y-136925000D03*
X141600000Y-137575000D03*
G04 #@! TD*
D19*
G04 #@! TO.C,IC3*
X150700000Y-135850000D03*
X150700000Y-136800000D03*
X150700000Y-137750000D03*
X153300000Y-137750000D03*
X153300000Y-135850000D03*
G04 #@! TD*
D20*
G04 #@! TO.C,IC4*
X162000000Y-137800000D03*
X162000000Y-137300000D03*
X162000000Y-136800000D03*
X162000000Y-136300000D03*
X162000000Y-135800000D03*
X157600000Y-135800000D03*
X157600000Y-136300000D03*
X157600000Y-136800000D03*
X157600000Y-137300000D03*
X157600000Y-137800000D03*
G04 #@! TD*
D21*
G04 #@! TO.C,IC5*
X125650000Y-143700000D03*
X125650000Y-142600000D03*
X125650000Y-141500000D03*
X125650000Y-140400000D03*
X125650000Y-139300000D03*
X125650000Y-138200000D03*
X125650000Y-137100000D03*
X125650000Y-136000000D03*
X125650000Y-134900000D03*
X116150000Y-134900000D03*
X116150000Y-136000000D03*
X116150000Y-137100000D03*
X116150000Y-138200000D03*
X116150000Y-139300000D03*
X116150000Y-140400000D03*
X116150000Y-141500000D03*
X116150000Y-142600000D03*
X116150000Y-143700000D03*
G04 #@! TD*
D22*
G04 #@! TO.C,IC6*
X116025000Y-122200000D03*
X116675000Y-122200000D03*
X117325000Y-122200000D03*
X117975000Y-122200000D03*
X117975000Y-117800000D03*
X117325000Y-117800000D03*
X116675000Y-117800000D03*
X116025000Y-117800000D03*
G04 #@! TD*
D23*
G04 #@! TO.C,IC7*
X110285000Y-142750000D03*
X110285000Y-143400000D03*
X110285000Y-144050000D03*
X112115000Y-144050000D03*
X112115000Y-143400000D03*
X112115000Y-142750000D03*
D24*
X111200000Y-143050000D03*
X111200000Y-143750000D03*
G04 #@! TD*
D25*
G04 #@! TO.C,P2*
X175500000Y-143375000D03*
X175500000Y-134625000D03*
D26*
X175500000Y-139000000D03*
G04 #@! TD*
G04 #@! TO.C,P3*
X175500000Y-125000000D03*
D25*
X175500000Y-120625000D03*
X175500000Y-129375000D03*
G04 #@! TD*
G04 #@! TO.C,P4*
X175500000Y-115375000D03*
X175500000Y-106625000D03*
D26*
X175500000Y-111000000D03*
G04 #@! TD*
G04 #@! TO.C,P5*
X104500000Y-136000000D03*
D25*
X104500000Y-140375000D03*
X104500000Y-131625000D03*
G04 #@! TD*
D13*
G04 #@! TO.C,R1*
X147850000Y-120000000D03*
X146950000Y-120000000D03*
G04 #@! TD*
D14*
G04 #@! TO.C,R2*
X151900000Y-131200000D03*
X153300000Y-131200000D03*
G04 #@! TD*
G04 #@! TO.C,R3*
X153300000Y-139400000D03*
X151900000Y-139400000D03*
G04 #@! TD*
G04 #@! TO.C,R4*
X155500000Y-134200000D03*
X156900000Y-134200000D03*
G04 #@! TD*
D13*
G04 #@! TO.C,R5*
X108800000Y-143950000D03*
X108800000Y-144850000D03*
G04 #@! TD*
D14*
G04 #@! TO.C,R7*
X112100000Y-127200000D03*
X110700000Y-127200000D03*
G04 #@! TD*
G04 #@! TO.C,R8*
X116300000Y-127200000D03*
X117700000Y-127200000D03*
G04 #@! TD*
G04 #@! TO.C,R9*
X117600000Y-115200000D03*
X116200000Y-115200000D03*
G04 #@! TD*
D27*
G04 #@! TO.C,Y1*
X144775000Y-122475000D03*
X146225000Y-122475000D03*
X146225000Y-121325000D03*
X144775000Y-121325000D03*
G04 #@! TD*
D28*
G04 #@! TO.C,Y2*
X144150000Y-136800000D03*
X146250000Y-136800000D03*
X146250000Y-135400000D03*
X144150000Y-135400000D03*
G04 #@! TD*
D13*
G04 #@! TO.C,R6*
X111650000Y-141000000D03*
X110750000Y-141000000D03*
G04 #@! TD*
G04 #@! TO.C,L1*
X111650000Y-139400000D03*
X111650000Y-138500000D03*
G04 #@! TD*
M02*
